<?xml version="1.0" standalone="no"?>
<!DOCTYPE svg PUBLIC "-//W3C//DTD SVG 20010904//EN"
 "http://www.w3.org/TR/2001/REC-SVG-20010904/DTD/svg10.dtd">
<svg version="1.0" xmlns="http://www.w3.org/2000/svg"
 width="700.000000pt" height="700.000000pt" viewBox="0 0 700.000000 700.000000"
 preserveAspectRatio="xMidYMid meet">
<metadata>
Created by potrace 1.14, written by Peter Selinger 2001-2017
</metadata>
<g transform="translate(0.000000,700.000000) scale(0.100000,-0.100000)"
fill="#000000" stroke="none">
<path d="M977 6050 c-96 -24 -182 -92 -226 -177 -38 -75 -44 -188 -15 -268 4
-11 206 -391 450 -845 302 -562 444 -835 444 -855 0 -20 -142 -296 -441 -855
-243 -454 -448 -843 -456 -865 -18 -51 -20 -149 -3 -200 20 -62 78 -143 127
-176 79 -55 113 -61 310 -57 170 3 180 4 233 30 31 15 68 40 82 55 15 15 162
280 328 588 166 308 305 563 308 567 4 3 144 -249 312 -560 221 -411 315 -577
343 -604 67 -64 122 -78 317 -78 146 0 177 3 224 20 76 29 139 88 178 168 28
57 33 77 33 142 0 66 -5 84 -36 150 -20 41 -224 426 -454 855 -357 664 -419
786 -418 820 0 33 74 177 435 845 239 443 443 828 454 855 30 78 26 185 -11
258 -34 68 -107 140 -173 170 -43 20 -63 22 -227 22 -168 0 -183 -2 -233 -24
-98 -44 -122 -82 -442 -679 -162 -303 -298 -548 -302 -544 -4 4 -137 250 -296
546 -159 297 -305 560 -323 585 -24 33 -54 56 -103 81 l-69 35 -156 2 c-86 1
-173 -2 -194 -7z"/>
<path d="M4481 5050 c-253 -67 -478 -290 -541 -536 -19 -74 -20 -115 -20
-1104 0 -992 1 -1029 20 -1106 66 -261 273 -467 536 -534 72 -19 113 -20 600
-20 505 0 525 1 579 21 71 26 147 100 183 176 26 55 27 66 27 208 0 96 -5 167
-13 196 -27 90 -126 190 -220 220 -25 9 -171 14 -452 18 l-415 6 -3 140 c-2
123 0 141 15 152 13 10 114 13 429 13 460 0 499 4 630 65 153 70 279 195 359
353 70 140 70 142 70 677 l0 480 -27 78 c-74 218 -259 405 -480 485 l-73 27
-565 2 c-533 2 -569 1 -639 -17z m937 -832 c17 -17 17 -439 0 -456 -9 -9 -94
-12 -319 -12 -169 0 -314 3 -323 6 -14 5 -16 35 -16 228 0 159 3 225 12 234
17 17 629 17 646 0z"/>
</g>
</svg>
