<svg width="114" height="87" viewBox="0 0 114 87" fill="none" xmlns="http://www.w3.org/2000/svg">
<mask id="path-1-outside-1_9_2" maskUnits="userSpaceOnUse" x="0" y="-1" width="115" height="89" fill="black">
<rect fill="white" y="-1" width="115" height="89"/>
<path d="M56.782 9.17599L38.99 42.2C38.5633 43.224 38.5633 44.2053 38.99 45.144L56.782 78.424C57.806 80.3867 57.7633 82.3067 56.654 84.184C55.4593 86.0613 53.7527 87 51.534 87H47.694C45.2193 87 43.5127 85.976 42.574 83.928L30.414 61.4C30.3287 61.0587 30.0727 60.888 29.646 60.888C29.3047 60.888 29.0487 61.0587 28.878 61.4L16.718 83.928C16.3767 84.8667 15.694 85.6347 14.67 86.232C13.7313 86.744 12.7073 87 11.598 87H7.63C5.49667 87 3.83267 86.0613 2.638 84.184C1.52867 82.3067 1.486 80.3867 2.51 78.424L20.302 45.144C20.7287 44.2053 20.7287 43.224 20.302 42.2L2.51 9.17599C1.486 7.04266 1.52867 5.08 2.638 3.28799C3.83267 1.41066 5.49667 0.471992 7.63 0.471992H11.598C13.902 0.471992 15.6087 1.49599 16.718 3.544L28.878 26.2C29.0487 26.5413 29.3047 26.712 29.646 26.712C29.9873 26.712 30.2433 26.5413 30.414 26.2L42.574 3.544C43.6833 1.49599 45.39 0.471992 47.694 0.471992H51.662C53.7953 0.471992 55.4593 1.41066 56.654 3.28799C57.7633 5.08 57.806 7.04266 56.782 9.17599ZM113.956 48.984C113.956 51.544 113.316 53.9333 112.036 56.152C110.756 58.2853 109.049 60.0347 106.916 61.4C104.783 62.68 102.393 63.32 99.748 63.32H84.644C84.2173 63.32 83.7907 63.4907 83.364 63.832C83.0227 64.088 82.852 64.4293 82.852 64.856V70.232C82.852 70.6587 83.0227 71.0427 83.364 71.384C83.7907 71.7253 84.2173 71.896 84.644 71.896H99.748C101.369 71.896 102.735 72.4507 103.844 73.56C105.039 74.6693 105.636 76.0773 105.636 77.784V81.112C105.636 82.7333 105.039 84.1413 103.844 85.336C102.735 86.4453 101.369 87 99.748 87H81.956C78.0307 87 74.66 85.6347 71.844 82.904C69.028 80.088 67.62 76.6747 67.62 72.664V35.032C67.62 32.3867 68.26 29.9973 69.54 27.864C70.9053 25.7307 72.6547 24.024 74.788 22.744C76.9213 21.3787 79.3107 20.696 81.956 20.696H99.748C102.393 20.696 104.783 21.3787 106.916 22.744C109.049 24.024 110.756 25.7307 112.036 27.864C113.316 29.9973 113.956 32.3867 113.956 35.032V48.984ZM98.852 46.424V37.72C98.852 37.208 98.6387 36.7813 98.212 36.44C97.8707 36.0987 97.4867 35.928 97.06 35.928H84.644C84.2173 35.928 83.7907 36.0987 83.364 36.44C83.0227 36.7813 82.852 37.208 82.852 37.72V46.424C82.852 46.7653 83.0227 47.1067 83.364 47.448C83.7907 47.7893 84.2173 47.96 84.644 47.96H97.06C97.4867 47.96 97.8707 47.7893 98.212 47.448C98.6387 47.1067 98.852 46.7653 98.852 46.424Z"/>
</mask>
<path d="M56.782 9.17599L38.99 42.2C38.5633 43.224 38.5633 44.2053 38.99 45.144L56.782 78.424C57.806 80.3867 57.7633 82.3067 56.654 84.184C55.4593 86.0613 53.7527 87 51.534 87H47.694C45.2193 87 43.5127 85.976 42.574 83.928L30.414 61.4C30.3287 61.0587 30.0727 60.888 29.646 60.888C29.3047 60.888 29.0487 61.0587 28.878 61.4L16.718 83.928C16.3767 84.8667 15.694 85.6347 14.67 86.232C13.7313 86.744 12.7073 87 11.598 87H7.63C5.49667 87 3.83267 86.0613 2.638 84.184C1.52867 82.3067 1.486 80.3867 2.51 78.424L20.302 45.144C20.7287 44.2053 20.7287 43.224 20.302 42.2L2.51 9.17599C1.486 7.04266 1.52867 5.08 2.638 3.28799C3.83267 1.41066 5.49667 0.471992 7.63 0.471992H11.598C13.902 0.471992 15.6087 1.49599 16.718 3.544L28.878 26.2C29.0487 26.5413 29.3047 26.712 29.646 26.712C29.9873 26.712 30.2433 26.5413 30.414 26.2L42.574 3.544C43.6833 1.49599 45.39 0.471992 47.694 0.471992H51.662C53.7953 0.471992 55.4593 1.41066 56.654 3.28799C57.7633 5.08 57.806 7.04266 56.782 9.17599ZM113.956 48.984C113.956 51.544 113.316 53.9333 112.036 56.152C110.756 58.2853 109.049 60.0347 106.916 61.4C104.783 62.68 102.393 63.32 99.748 63.32H84.644C84.2173 63.32 83.7907 63.4907 83.364 63.832C83.0227 64.088 82.852 64.4293 82.852 64.856V70.232C82.852 70.6587 83.0227 71.0427 83.364 71.384C83.7907 71.7253 84.2173 71.896 84.644 71.896H99.748C101.369 71.896 102.735 72.4507 103.844 73.56C105.039 74.6693 105.636 76.0773 105.636 77.784V81.112C105.636 82.7333 105.039 84.1413 103.844 85.336C102.735 86.4453 101.369 87 99.748 87H81.956C78.0307 87 74.66 85.6347 71.844 82.904C69.028 80.088 67.62 76.6747 67.62 72.664V35.032C67.62 32.3867 68.26 29.9973 69.54 27.864C70.9053 25.7307 72.6547 24.024 74.788 22.744C76.9213 21.3787 79.3107 20.696 81.956 20.696H99.748C102.393 20.696 104.783 21.3787 106.916 22.744C109.049 24.024 110.756 25.7307 112.036 27.864C113.316 29.9973 113.956 32.3867 113.956 35.032V48.984ZM98.852 46.424V37.72C98.852 37.208 98.6387 36.7813 98.212 36.44C97.8707 36.0987 97.4867 35.928 97.06 35.928H84.644C84.2173 35.928 83.7907 36.0987 83.364 36.44C83.0227 36.7813 82.852 37.208 82.852 37.72V46.424C82.852 46.7653 83.0227 47.1067 83.364 47.448C83.7907 47.7893 84.2173 47.96 84.644 47.96H97.06C97.4867 47.96 97.8707 47.7893 98.212 47.448C98.6387 47.1067 98.852 46.7653 98.852 46.424Z" fill="url(#paint0_linear_9_2)" fill-opacity="0.8"/>
<path d="M56.782 9.17599L57.6624 9.6503L57.6734 9.62976L57.6835 9.60873L56.782 9.17599ZM38.99 42.2L38.1096 41.7257L38.0861 41.7695L38.0669 41.8154L38.99 42.2ZM38.99 45.144L38.0796 45.5578L38.0929 45.5871L38.1081 45.6155L38.99 45.144ZM56.782 78.424L57.6686 77.9614L57.6639 77.9525L56.782 78.424ZM56.654 84.184L57.4977 84.7209L57.5065 84.7069L57.5149 84.6927L56.654 84.184ZM42.574 83.928L43.4831 83.5113L43.4695 83.4817L43.454 83.453L42.574 83.928ZM30.414 61.4L29.4439 61.6425L29.4743 61.7644L29.534 61.875L30.414 61.4ZM28.878 61.4L29.758 61.875L29.7654 61.8612L29.7724 61.8472L28.878 61.4ZM16.718 83.928L15.838 83.453L15.8032 83.5174L15.7782 83.5863L16.718 83.928ZM14.67 86.232L15.1489 87.1099L15.1615 87.103L15.1739 87.0958L14.67 86.232ZM2.638 84.184L1.77707 84.6927L1.78547 84.7069L1.79434 84.7209L2.638 84.184ZM2.51 78.424L1.62807 77.9525L1.62342 77.9614L2.51 78.424ZM20.302 45.144L21.1839 45.6155L21.1991 45.5871L21.2124 45.5578L20.302 45.144ZM20.302 42.2L21.2251 41.8154L21.206 41.7695L21.1824 41.7257L20.302 42.2ZM2.51 9.17599L1.60848 9.60873L1.61857 9.62976L1.62964 9.6503L2.51 9.17599ZM2.638 3.28799L1.79427 2.75108L1.78774 2.76164L2.638 3.28799ZM16.718 3.544L17.5991 3.07108L17.5973 3.06772L16.718 3.544ZM28.878 26.2L29.7724 25.7528L29.766 25.7398L29.7591 25.7271L28.878 26.2ZM30.414 26.2L29.5329 25.7271L29.526 25.7398L29.5196 25.7528L30.414 26.2ZM42.574 3.544L41.6947 3.06771L41.6929 3.07109L42.574 3.544ZM56.654 3.28799L57.5043 2.7616L57.4977 2.75112L56.654 3.28799ZM55.9016 8.70169L38.1096 41.7257L39.8704 42.6743L57.6624 9.6503L55.9016 8.70169ZM38.0669 41.8154C37.5425 43.074 37.5286 44.3456 38.0796 45.5578L39.9004 44.7302C39.598 44.065 39.5842 43.374 39.9131 42.5846L38.0669 41.8154ZM38.1081 45.6155L55.9001 78.8955L57.6639 77.9525L39.8719 44.6725L38.1081 45.6155ZM55.8954 78.8866C56.7625 80.5485 56.7233 82.101 55.7931 83.6753L57.5149 84.6927C58.8033 82.5123 58.8495 80.2249 57.6686 77.9614L55.8954 78.8866ZM55.8103 83.6471C54.7986 85.237 53.4095 86 51.534 86V88C54.0958 88 56.1201 86.8856 57.4977 84.7209L55.8103 83.6471ZM51.534 86H47.694V88H51.534V86ZM47.694 86C46.5941 86 45.7367 85.773 45.0725 85.3745C44.4144 84.9796 43.8798 84.377 43.4831 83.5113L41.6649 84.3447C42.2068 85.527 42.995 86.4604 44.0435 87.0895C45.086 87.715 46.3192 88 47.694 88V86ZM43.454 83.453L31.294 60.925L29.534 61.875L41.694 84.403L43.454 83.453ZM31.3841 61.1575C31.2904 60.7826 31.0774 60.4271 30.7127 60.1839C30.3682 59.9543 29.983 59.888 29.646 59.888V61.888C29.7357 61.888 29.6918 61.907 29.6033 61.848C29.5574 61.8175 29.5165 61.7766 29.486 61.7307C29.4566 61.6867 29.4464 61.6527 29.4439 61.6425L31.3841 61.1575ZM29.646 59.888C29.3003 59.888 28.9533 59.9773 28.6433 60.1839C28.3396 60.3864 28.1282 60.6635 27.9836 60.9528L29.7724 61.8472C29.7984 61.7952 29.8004 61.8162 29.7527 61.848C29.7298 61.8633 29.7046 61.8747 29.6807 61.8815C29.6577 61.8881 29.6445 61.888 29.646 61.888V59.888ZM27.998 60.925L15.838 83.453L17.598 84.403L29.758 61.875L27.998 60.925ZM15.7782 83.5863C15.5311 84.2659 15.0277 84.8656 14.1661 85.3682L15.1739 87.0958C16.3603 86.4037 17.2223 85.4674 17.6578 84.2697L15.7782 83.5863ZM14.1911 85.3541C13.405 85.7829 12.5465 86 11.598 86V88C12.8681 88 14.0577 87.7051 15.1489 87.1099L14.1911 85.3541ZM11.598 86H7.63V88H11.598V86ZM7.63 86C5.85598 86 4.50232 85.251 3.48166 83.6471L1.79434 84.7209C3.16301 86.8717 5.13735 88 7.63 88V86ZM3.49893 83.6753C2.56867 82.101 2.5295 80.5485 3.39659 78.8866L1.62342 77.9614C0.442501 80.2249 0.488661 82.5123 1.77707 84.6927L3.49893 83.6753ZM3.39188 78.8955L21.1839 45.6155L19.4201 44.6725L1.62812 77.9525L3.39188 78.8955ZM21.2124 45.5578C21.7634 44.3456 21.7495 43.074 21.2251 41.8154L19.3789 42.5846C19.7078 43.374 19.694 44.065 19.3916 44.7302L21.2124 45.5578ZM21.1824 41.7257L3.39036 8.70169L1.62964 9.6503L19.4216 42.6743L21.1824 41.7257ZM3.41152 8.74326C2.51371 6.87282 2.58307 5.27659 3.48827 3.81435L1.78774 2.76164C0.474267 4.8834 0.458293 7.21251 1.60848 9.60873L3.41152 8.74326ZM3.48166 3.82487C4.50232 2.22098 5.85598 1.47199 7.63 1.47199V-0.528008C5.13735 -0.528008 3.16301 0.600343 1.79434 2.75112L3.48166 3.82487ZM7.63 1.47199H11.598V-0.528008H7.63V1.47199ZM11.598 1.47199C12.5978 1.47199 13.4167 1.69261 14.0915 2.09749C14.7669 2.50271 15.3546 3.12662 15.8387 4.02028L17.5973 3.06772C16.972 1.91337 16.1518 1.00128 15.1205 0.382502C14.0886 -0.236623 12.9022 -0.528008 11.598 -0.528008V1.47199ZM15.8369 4.01691L27.9969 26.6729L29.7591 25.7271L17.5991 3.07109L15.8369 4.01691ZM27.9836 26.6472C28.1282 26.9365 28.3396 27.2136 28.6433 27.416C28.9533 27.6227 29.3003 27.712 29.646 27.712V25.712C29.6445 25.712 29.6577 25.7119 29.6807 25.7185C29.7046 25.7253 29.7298 25.7367 29.7527 25.7519C29.8004 25.7838 29.7984 25.8048 29.7724 25.7528L27.9836 26.6472ZM29.646 27.712C29.9917 27.712 30.3387 27.6227 30.6487 27.416C30.9524 27.2136 31.1638 26.9365 31.3084 26.6472L29.5196 25.7528C29.4936 25.8048 29.4916 25.7838 29.5393 25.7519C29.5622 25.7367 29.5875 25.7253 29.6113 25.7185C29.6343 25.7119 29.6475 25.712 29.646 25.712V27.712ZM31.2951 26.6729L43.4551 4.01691L41.6929 3.07109L29.5329 25.7271L31.2951 26.6729ZM43.4533 4.02028C43.9374 3.12662 44.5251 2.50271 45.2005 2.09749C45.8753 1.69261 46.6942 1.47199 47.694 1.47199V-0.528008C46.3898 -0.528008 45.2034 -0.236623 44.1715 0.382501C43.1402 1.00128 42.32 1.91337 41.6947 3.06772L43.4533 4.02028ZM47.694 1.47199H51.662V-0.528008H47.694V1.47199ZM51.662 1.47199C53.436 1.47199 54.7897 2.22098 55.8103 3.82487L57.4977 2.75112C56.129 0.600343 54.1547 -0.528008 51.662 -0.528008V1.47199ZM55.8037 3.81435C56.7089 5.27659 56.7783 6.87282 55.8805 8.74326L57.6835 9.60873C58.8337 7.21251 58.8177 4.8834 57.5043 2.76164L55.8037 3.81435ZM112.036 56.152L112.893 56.6665L112.898 56.6591L112.902 56.6517L112.036 56.152ZM106.916 61.4L107.43 62.2575L107.443 62.2501L107.455 62.2423L106.916 61.4ZM83.364 63.832L83.964 64.632L83.9765 64.6226L83.9887 64.6129L83.364 63.832ZM83.364 71.384L82.6569 72.0911L82.6961 72.1303L82.7393 72.1649L83.364 71.384ZM103.844 73.56L103.137 74.2671L103.15 74.2802L103.164 74.2928L103.844 73.56ZM103.844 85.336L104.551 86.0431L104.551 86.0431L103.844 85.336ZM71.844 82.904L71.1369 83.6111L71.1423 83.6165L71.1479 83.6219L71.844 82.904ZM69.54 27.864L68.6977 27.3249L68.6899 27.3371L68.6825 27.3495L69.54 27.864ZM74.788 22.744L75.3025 23.6015L75.3149 23.5941L75.3271 23.5863L74.788 22.744ZM106.916 22.744L106.377 23.5863L106.389 23.5941L106.402 23.6015L106.916 22.744ZM112.036 27.864L112.893 27.3495L112.893 27.3495L112.036 27.864ZM98.212 36.44L97.5049 37.1471L97.5441 37.1863L97.5873 37.2209L98.212 36.44ZM83.364 36.44L82.7393 35.6591L82.6961 35.6937L82.6569 35.7329L83.364 36.44ZM83.364 47.448L82.6569 48.1551L82.6961 48.1943L82.7393 48.2289L83.364 47.448ZM98.212 47.448L97.5873 46.6671L97.5441 46.7017L97.5049 46.7409L98.212 47.448ZM112.956 48.984C112.956 51.3685 112.362 53.5855 111.17 55.6523L112.902 56.6517C114.27 54.2812 114.956 51.7195 114.956 48.984H112.956ZM111.179 55.6375C109.979 57.636 108.383 59.2741 106.377 60.5577L107.455 62.2423C109.716 60.7953 111.533 58.9347 112.893 56.6665L111.179 55.6375ZM106.402 60.5425C104.434 61.7233 102.224 62.32 99.748 62.32V64.32C102.563 64.32 105.132 63.6367 107.43 62.2575L106.402 60.5425ZM99.748 62.32H84.644V64.32H99.748V62.32ZM84.644 62.32C83.9331 62.32 83.2928 62.6084 82.7393 63.0511L83.9887 64.6129C84.2886 64.373 84.5016 64.32 84.644 64.32V62.32ZM82.764 63.032C82.1709 63.4769 81.852 64.1146 81.852 64.856H83.852C83.852 64.7441 83.8745 64.6991 83.964 64.632L82.764 63.032ZM81.852 64.856V70.232H83.852V64.856H81.852ZM81.852 70.232C81.852 70.9596 82.1549 71.5891 82.6569 72.0911L84.0711 70.6769C83.8905 70.4962 83.852 70.3578 83.852 70.232H81.852ZM82.7393 72.1649C83.2928 72.6076 83.9331 72.896 84.644 72.896V70.896C84.5016 70.896 84.2886 70.843 83.9887 70.6031L82.7393 72.1649ZM84.644 72.896H99.748V70.896H84.644V72.896ZM99.748 72.896C101.114 72.896 102.222 73.3522 103.137 74.2671L104.551 72.8529C103.247 71.5491 101.625 70.896 99.748 70.896V72.896ZM103.164 74.2928C104.144 75.2031 104.636 76.3407 104.636 77.784H106.636C106.636 75.8139 105.933 74.1355 104.524 72.8272L103.164 74.2928ZM104.636 77.784V81.112H106.636V77.784H104.636ZM104.636 81.112C104.636 82.4559 104.153 83.613 103.137 84.6289L104.551 86.0431C105.925 84.6697 106.636 83.0107 106.636 81.112H104.636ZM103.137 84.6289C102.222 85.5438 101.114 86 99.748 86V88C101.625 88 103.247 87.3469 104.551 86.0431L103.137 84.6289ZM99.748 86H81.956V88H99.748V86ZM81.956 86C78.2904 86 75.1694 84.7357 72.5401 82.1861L71.1479 83.6219C74.1506 86.5336 77.771 88 81.956 88V86ZM72.5511 82.1969C69.9241 79.5699 68.62 76.4116 68.62 72.664H66.62C66.62 76.9378 68.1319 80.6061 71.1369 83.6111L72.5511 82.1969ZM68.62 72.664V35.032H66.62V72.664H68.62ZM68.62 35.032C68.62 32.556 69.2167 30.3465 70.3975 28.3785L68.6825 27.3495C67.3033 29.6482 66.62 32.2174 66.62 35.032H68.62ZM70.3823 28.4031C71.6659 26.3973 73.304 24.8006 75.3025 23.6015L74.2735 21.8865C72.0053 23.2474 70.1447 25.064 68.6977 27.3249L70.3823 28.4031ZM75.3271 23.5863C77.2921 22.3286 79.4928 21.696 81.956 21.696V19.696C79.1285 19.696 76.5506 20.4287 74.2489 21.9017L75.3271 23.5863ZM81.956 21.696H99.748V19.696H81.956V21.696ZM99.748 21.696C102.211 21.696 104.412 22.3286 106.377 23.5863L107.455 21.9017C105.153 20.4287 102.575 19.696 99.748 19.696V21.696ZM106.402 23.6015C108.394 24.797 109.983 26.3859 111.179 28.3785L112.893 27.3495C111.529 25.0754 109.705 23.251 107.43 21.8865L106.402 23.6015ZM111.179 28.3785C112.359 30.3465 112.956 32.556 112.956 35.032H114.956C114.956 32.2174 114.273 29.6482 112.893 27.3495L111.179 28.3785ZM112.956 35.032V48.984H114.956V35.032H112.956ZM99.852 46.424V37.72H97.852V46.424H99.852ZM99.852 37.72C99.852 36.8815 99.4822 36.1756 98.8367 35.6591L97.5873 37.2209C97.7951 37.3871 97.852 37.5345 97.852 37.72H99.852ZM98.9191 35.7329C98.4171 35.2309 97.7876 34.928 97.06 34.928V36.928C97.1858 36.928 97.3242 36.9665 97.5049 37.1471L98.9191 35.7329ZM97.06 34.928H84.644V36.928H97.06V34.928ZM84.644 34.928C83.9331 34.928 83.2928 35.2164 82.7393 35.6591L83.9887 37.2209C84.2886 36.981 84.5016 36.928 84.644 36.928V34.928ZM82.6569 35.7329C82.1158 36.274 81.852 36.9606 81.852 37.72H83.852C83.852 37.4554 83.9296 37.2886 84.0711 37.1471L82.6569 35.7329ZM81.852 37.72V46.424H83.852V37.72H81.852ZM81.852 46.424C81.852 47.1241 82.2066 47.7048 82.6569 48.1551L84.0711 46.7409C83.9573 46.627 83.9009 46.5417 83.8744 46.4888C83.8617 46.4633 83.8564 46.4463 83.8541 46.4375C83.852 46.429 83.852 46.4251 83.852 46.424H81.852ZM82.7393 48.2289C83.2928 48.6716 83.9331 48.96 84.644 48.96V46.96C84.5016 46.96 84.2886 46.907 83.9887 46.6671L82.7393 48.2289ZM84.644 48.96H97.06V46.96H84.644V48.96ZM97.06 48.96C97.7876 48.96 98.4171 48.6571 98.9191 48.1551L97.5049 46.7409C97.3242 46.9215 97.1858 46.96 97.06 46.96V48.96ZM98.8367 48.2289C99.3584 47.8115 99.852 47.2136 99.852 46.424H97.852C97.852 46.3759 97.8694 46.3654 97.844 46.406C97.8142 46.4537 97.7419 46.5434 97.5873 46.6671L98.8367 48.2289Z" fill="black" mask="url(#path-1-outside-1_9_2)"/>
<defs>
<linearGradient id="paint0_linear_9_2" x1="-47.9394" y1="69.5135" x2="155.102" y2="62.5544" gradientUnits="userSpaceOnUse">
<stop offset="0.342362" stop-color="#7B04C4"/>
<stop offset="0.944315" stop-color="#1F0AA0"/>
</linearGradient>
</defs>
</svg>
