<svg width="144" height="144" viewBox="0 0 144 144" fill="none" xmlns="http://www.w3.org/2000/svg">
<mask id="path-1-outside-1_14_2" maskUnits="userSpaceOnUse" x="14" y="19" width="115" height="89" fill="black">
<rect fill="white" x="14" y="19" width="115" height="89"/>
<path d="M70.782 29.176L52.99 62.2C52.5633 63.224 52.5633 64.2053 52.99 65.144L70.782 98.424C71.806 100.387 71.7633 102.307 70.654 104.184C69.4593 106.061 67.7527 107 65.534 107H61.694C59.2193 107 57.5127 105.976 56.574 103.928L44.414 81.4C44.3287 81.0587 44.0727 80.888 43.646 80.888C43.3047 80.888 43.0487 81.0587 42.878 81.4L30.718 103.928C30.3767 104.867 29.694 105.635 28.67 106.232C27.7313 106.744 26.7073 107 25.598 107H21.63C19.4967 107 17.8327 106.061 16.638 104.184C15.5287 102.307 15.486 100.387 16.51 98.424L34.302 65.144C34.7287 64.2053 34.7287 63.224 34.302 62.2L16.51 29.176C15.486 27.0427 15.5287 25.08 16.638 23.288C17.8327 21.4107 19.4967 20.472 21.63 20.472H25.598C27.902 20.472 29.6087 21.496 30.718 23.544L42.878 46.2C43.0487 46.5413 43.3047 46.712 43.646 46.712C43.9873 46.712 44.2433 46.5413 44.414 46.2L56.574 23.544C57.6833 21.496 59.39 20.472 61.694 20.472H65.662C67.7953 20.472 69.4593 21.4107 70.654 23.288C71.7633 25.08 71.806 27.0427 70.782 29.176ZM127.956 68.984C127.956 71.544 127.316 73.9333 126.036 76.152C124.756 78.2853 123.049 80.0347 120.916 81.4C118.783 82.68 116.393 83.32 113.748 83.32H98.644C98.2173 83.32 97.7907 83.4907 97.364 83.832C97.0227 84.088 96.852 84.4293 96.852 84.856V90.232C96.852 90.6587 97.0227 91.0427 97.364 91.384C97.7907 91.7253 98.2173 91.896 98.644 91.896H113.748C115.369 91.896 116.735 92.4507 117.844 93.56C119.039 94.6693 119.636 96.0773 119.636 97.784V101.112C119.636 102.733 119.039 104.141 117.844 105.336C116.735 106.445 115.369 107 113.748 107H95.956C92.0307 107 88.66 105.635 85.844 102.904C83.028 100.088 81.62 96.6747 81.62 92.664V55.032C81.62 52.3867 82.26 49.9973 83.54 47.864C84.9053 45.7307 86.6547 44.024 88.788 42.744C90.9213 41.3787 93.3107 40.696 95.956 40.696H113.748C116.393 40.696 118.783 41.3787 120.916 42.744C123.049 44.024 124.756 45.7307 126.036 47.864C127.316 49.9973 127.956 52.3867 127.956 55.032V68.984ZM112.852 66.424V57.72C112.852 57.208 112.639 56.7813 112.212 56.44C111.871 56.0987 111.487 55.928 111.06 55.928H98.644C98.2173 55.928 97.7907 56.0987 97.364 56.44C97.0227 56.7813 96.852 57.208 96.852 57.72V66.424C96.852 66.7653 97.0227 67.1067 97.364 67.448C97.7907 67.7893 98.2173 67.96 98.644 67.96H111.06C111.487 67.96 111.871 67.7893 112.212 67.448C112.639 67.1067 112.852 66.7653 112.852 66.424Z"/>
</mask>
<path d="M70.782 29.176L52.99 62.2C52.5633 63.224 52.5633 64.2053 52.99 65.144L70.782 98.424C71.806 100.387 71.7633 102.307 70.654 104.184C69.4593 106.061 67.7527 107 65.534 107H61.694C59.2193 107 57.5127 105.976 56.574 103.928L44.414 81.4C44.3287 81.0587 44.0727 80.888 43.646 80.888C43.3047 80.888 43.0487 81.0587 42.878 81.4L30.718 103.928C30.3767 104.867 29.694 105.635 28.67 106.232C27.7313 106.744 26.7073 107 25.598 107H21.63C19.4967 107 17.8327 106.061 16.638 104.184C15.5287 102.307 15.486 100.387 16.51 98.424L34.302 65.144C34.7287 64.2053 34.7287 63.224 34.302 62.2L16.51 29.176C15.486 27.0427 15.5287 25.08 16.638 23.288C17.8327 21.4107 19.4967 20.472 21.63 20.472H25.598C27.902 20.472 29.6087 21.496 30.718 23.544L42.878 46.2C43.0487 46.5413 43.3047 46.712 43.646 46.712C43.9873 46.712 44.2433 46.5413 44.414 46.2L56.574 23.544C57.6833 21.496 59.39 20.472 61.694 20.472H65.662C67.7953 20.472 69.4593 21.4107 70.654 23.288C71.7633 25.08 71.806 27.0427 70.782 29.176ZM127.956 68.984C127.956 71.544 127.316 73.9333 126.036 76.152C124.756 78.2853 123.049 80.0347 120.916 81.4C118.783 82.68 116.393 83.32 113.748 83.32H98.644C98.2173 83.32 97.7907 83.4907 97.364 83.832C97.0227 84.088 96.852 84.4293 96.852 84.856V90.232C96.852 90.6587 97.0227 91.0427 97.364 91.384C97.7907 91.7253 98.2173 91.896 98.644 91.896H113.748C115.369 91.896 116.735 92.4507 117.844 93.56C119.039 94.6693 119.636 96.0773 119.636 97.784V101.112C119.636 102.733 119.039 104.141 117.844 105.336C116.735 106.445 115.369 107 113.748 107H95.956C92.0307 107 88.66 105.635 85.844 102.904C83.028 100.088 81.62 96.6747 81.62 92.664V55.032C81.62 52.3867 82.26 49.9973 83.54 47.864C84.9053 45.7307 86.6547 44.024 88.788 42.744C90.9213 41.3787 93.3107 40.696 95.956 40.696H113.748C116.393 40.696 118.783 41.3787 120.916 42.744C123.049 44.024 124.756 45.7307 126.036 47.864C127.316 49.9973 127.956 52.3867 127.956 55.032V68.984ZM112.852 66.424V57.72C112.852 57.208 112.639 56.7813 112.212 56.44C111.871 56.0987 111.487 55.928 111.06 55.928H98.644C98.2173 55.928 97.7907 56.0987 97.364 56.44C97.0227 56.7813 96.852 57.208 96.852 57.72V66.424C96.852 66.7653 97.0227 67.1067 97.364 67.448C97.7907 67.7893 98.2173 67.96 98.644 67.96H111.06C111.487 67.96 111.871 67.7893 112.212 67.448C112.639 67.1067 112.852 66.7653 112.852 66.424Z" fill="url(#paint0_linear_14_2)" fill-opacity="0.8"/>
<path d="M70.782 29.176L71.6624 29.6503L71.6734 29.6298L71.6835 29.6087L70.782 29.176ZM52.99 62.2L52.1096 61.7257L52.0861 61.7695L52.0669 61.8154L52.99 62.2ZM52.99 65.144L52.0796 65.5578L52.0929 65.5871L52.1081 65.6155L52.99 65.144ZM70.782 98.424L71.6686 97.9614L71.6639 97.9525L70.782 98.424ZM70.654 104.184L71.4977 104.721L71.5065 104.707L71.5149 104.693L70.654 104.184ZM56.574 103.928L57.4831 103.511L57.4695 103.482L57.454 103.453L56.574 103.928ZM44.414 81.4L43.4439 81.6425L43.4743 81.7644L43.534 81.875L44.414 81.4ZM42.878 81.4L43.758 81.875L43.7654 81.8612L43.7724 81.8472L42.878 81.4ZM30.718 103.928L29.838 103.453L29.8032 103.517L29.7782 103.586L30.718 103.928ZM28.67 106.232L29.1489 107.11L29.1615 107.103L29.1739 107.096L28.67 106.232ZM16.638 104.184L15.7771 104.693L15.7855 104.707L15.7943 104.721L16.638 104.184ZM16.51 98.424L15.6281 97.9525L15.6234 97.9614L16.51 98.424ZM34.302 65.144L35.1839 65.6155L35.1991 65.5871L35.2124 65.5578L34.302 65.144ZM34.302 62.2L35.2251 61.8154L35.206 61.7695L35.1824 61.7257L34.302 62.2ZM16.51 29.176L15.6085 29.6087L15.6186 29.6298L15.6296 29.6503L16.51 29.176ZM16.638 23.288L15.7943 22.7511L15.7877 22.7616L16.638 23.288ZM30.718 23.544L31.5991 23.0711L31.5973 23.0677L30.718 23.544ZM42.878 46.2L43.7724 45.7528L43.766 45.7398L43.7591 45.7271L42.878 46.2ZM44.414 46.2L43.5329 45.7271L43.526 45.7398L43.5196 45.7528L44.414 46.2ZM56.574 23.544L55.6947 23.0677L55.6929 23.0711L56.574 23.544ZM70.654 23.288L71.5043 22.7616L71.4977 22.7511L70.654 23.288ZM69.9016 28.7017L52.1096 61.7257L53.8704 62.6743L71.6624 29.6503L69.9016 28.7017ZM52.0669 61.8154C51.5425 63.074 51.5286 64.3456 52.0796 65.5578L53.9004 64.7302C53.598 64.065 53.5842 63.374 53.9131 62.5846L52.0669 61.8154ZM52.1081 65.6155L69.9001 98.8955L71.6639 97.9525L53.8719 64.6725L52.1081 65.6155ZM69.8954 98.8866C70.7625 100.548 70.7233 102.101 69.7931 103.675L71.5149 104.693C72.8033 102.512 72.8495 100.225 71.6686 97.9614L69.8954 98.8866ZM69.8103 103.647C68.7986 105.237 67.4095 106 65.534 106V108C68.0958 108 70.1201 106.886 71.4977 104.721L69.8103 103.647ZM65.534 106H61.694V108H65.534V106ZM61.694 106C60.5941 106 59.7367 105.773 59.0725 105.375C58.4144 104.98 57.8798 104.377 57.4831 103.511L55.6649 104.345C56.2068 105.527 56.995 106.46 58.0435 107.089C59.086 107.715 60.3192 108 61.694 108V106ZM57.454 103.453L45.294 80.925L43.534 81.875L55.694 104.403L57.454 103.453ZM45.3841 81.1575C45.2904 80.7826 45.0774 80.4271 44.7127 80.1839C44.3682 79.9543 43.983 79.888 43.646 79.888V81.888C43.7357 81.888 43.6918 81.907 43.6033 81.848C43.5574 81.8175 43.5165 81.7766 43.486 81.7307C43.4566 81.6867 43.4464 81.6527 43.4439 81.6425L45.3841 81.1575ZM43.646 79.888C43.3003 79.888 42.9533 79.9773 42.6433 80.1839C42.3396 80.3864 42.1282 80.6635 41.9836 80.9528L43.7724 81.8472C43.7984 81.7952 43.8004 81.8162 43.7527 81.848C43.7298 81.8633 43.7046 81.8747 43.6807 81.8815C43.6577 81.8881 43.6445 81.888 43.646 81.888V79.888ZM41.998 80.925L29.838 103.453L31.598 104.403L43.758 81.875L41.998 80.925ZM29.7782 103.586C29.5311 104.266 29.0277 104.866 28.1661 105.368L29.1739 107.096C30.3603 106.404 31.2223 105.467 31.6578 104.27L29.7782 103.586ZM28.1911 105.354C27.405 105.783 26.5465 106 25.598 106V108C26.8681 108 28.0577 107.705 29.1489 107.11L28.1911 105.354ZM25.598 106H21.63V108H25.598V106ZM21.63 106C19.856 106 18.5023 105.251 17.4817 103.647L15.7943 104.721C17.163 106.872 19.1374 108 21.63 108V106ZM17.4989 103.675C16.5687 102.101 16.5295 100.548 17.3966 98.8866L15.6234 97.9614C14.4425 100.225 14.4887 102.512 15.7771 104.693L17.4989 103.675ZM17.3919 98.8955L35.1839 65.6155L33.4201 64.6725L15.6281 97.9525L17.3919 98.8955ZM35.2124 65.5578C35.7634 64.3456 35.7495 63.074 35.2251 61.8154L33.3789 62.5846C33.7078 63.374 33.694 64.065 33.3916 64.7302L35.2124 65.5578ZM35.1824 61.7257L17.3904 28.7017L15.6296 29.6503L33.4216 62.6743L35.1824 61.7257ZM17.4115 28.7433C16.5137 26.8728 16.5831 25.2766 17.4883 23.8143L15.7877 22.7616C14.4743 24.8834 14.4583 27.2125 15.6085 29.6087L17.4115 28.7433ZM17.4817 23.8249C18.5023 22.221 19.856 21.472 21.63 21.472V19.472C19.1374 19.472 17.163 20.6003 15.7943 22.7511L17.4817 23.8249ZM21.63 21.472H25.598V19.472H21.63V21.472ZM25.598 21.472C26.5978 21.472 27.4167 21.6926 28.0915 22.0975C28.7669 22.5027 29.3546 23.1266 29.8387 24.0203L31.5973 23.0677C30.972 21.9134 30.1518 21.0013 29.1205 20.3825C28.0886 19.7634 26.9022 19.472 25.598 19.472V21.472ZM29.8369 24.0169L41.9969 46.6729L43.7591 45.7271L31.5991 23.0711L29.8369 24.0169ZM41.9836 46.6472C42.1282 46.9365 42.3396 47.2136 42.6433 47.416C42.9533 47.6227 43.3003 47.712 43.646 47.712V45.712C43.6445 45.712 43.6577 45.7119 43.6807 45.7185C43.7046 45.7253 43.7298 45.7367 43.7527 45.7519C43.8004 45.7838 43.7984 45.8048 43.7724 45.7528L41.9836 46.6472ZM43.646 47.712C43.9917 47.712 44.3387 47.6227 44.6487 47.416C44.9524 47.2136 45.1638 46.9365 45.3084 46.6472L43.5196 45.7528C43.4936 45.8048 43.4916 45.7838 43.5393 45.7519C43.5622 45.7367 43.5875 45.7253 43.6113 45.7185C43.6343 45.7119 43.6475 45.712 43.646 45.712V47.712ZM45.2951 46.6729L57.4551 24.0169L55.6929 23.0711L43.5329 45.7271L45.2951 46.6729ZM57.4533 24.0203C57.9374 23.1266 58.5251 22.5027 59.2005 22.0975C59.8753 21.6926 60.6942 21.472 61.694 21.472V19.472C60.3898 19.472 59.2034 19.7634 58.1715 20.3825C57.1402 21.0013 56.32 21.9134 55.6947 23.0677L57.4533 24.0203ZM61.694 21.472H65.662V19.472H61.694V21.472ZM65.662 21.472C67.436 21.472 68.7897 22.221 69.8103 23.8249L71.4977 22.7511C70.129 20.6003 68.1547 19.472 65.662 19.472V21.472ZM69.8037 23.8143C70.7089 25.2766 70.7783 26.8728 69.8805 28.7433L71.6835 29.6087C72.8337 27.2125 72.8177 24.8834 71.5043 22.7616L69.8037 23.8143ZM126.036 76.152L126.893 76.6665L126.898 76.6591L126.902 76.6517L126.036 76.152ZM120.916 81.4L121.43 82.2575L121.443 82.2501L121.455 82.2423L120.916 81.4ZM97.364 83.832L97.964 84.632L97.9765 84.6226L97.9887 84.6129L97.364 83.832ZM97.364 91.384L96.6569 92.0911L96.6961 92.1303L96.7393 92.1649L97.364 91.384ZM117.844 93.56L117.137 94.2671L117.15 94.2802L117.164 94.2928L117.844 93.56ZM117.844 105.336L118.551 106.043L118.551 106.043L117.844 105.336ZM85.844 102.904L85.1369 103.611L85.1423 103.617L85.1479 103.622L85.844 102.904ZM83.54 47.864L82.6977 47.3249L82.6899 47.3371L82.6825 47.3495L83.54 47.864ZM88.788 42.744L89.3025 43.6015L89.3149 43.5941L89.3271 43.5863L88.788 42.744ZM120.916 42.744L120.377 43.5863L120.389 43.5941L120.402 43.6015L120.916 42.744ZM126.036 47.864L126.893 47.3495L126.893 47.3495L126.036 47.864ZM112.212 56.44L111.505 57.1471L111.544 57.1863L111.587 57.2209L112.212 56.44ZM97.364 56.44L96.7393 55.6591L96.6961 55.6937L96.6569 55.7329L97.364 56.44ZM97.364 67.448L96.6569 68.1551L96.6961 68.1943L96.7393 68.2289L97.364 67.448ZM112.212 67.448L111.587 66.6671L111.544 66.7017L111.505 66.7409L112.212 67.448ZM126.956 68.984C126.956 71.3685 126.362 73.5855 125.17 75.6523L126.902 76.6517C128.27 74.2812 128.956 71.7195 128.956 68.984H126.956ZM125.179 75.6375C123.979 77.636 122.383 79.2741 120.377 80.5577L121.455 82.2423C123.716 80.7953 125.533 78.9347 126.893 76.6665L125.179 75.6375ZM120.402 80.5425C118.434 81.7233 116.224 82.32 113.748 82.32V84.32C116.563 84.32 119.132 83.6367 121.43 82.2575L120.402 80.5425ZM113.748 82.32H98.644V84.32H113.748V82.32ZM98.644 82.32C97.9331 82.32 97.2928 82.6084 96.7393 83.0511L97.9887 84.6129C98.2886 84.373 98.5016 84.32 98.644 84.32V82.32ZM96.764 83.032C96.1709 83.4769 95.852 84.1146 95.852 84.856H97.852C97.852 84.7441 97.8745 84.6991 97.964 84.632L96.764 83.032ZM95.852 84.856V90.232H97.852V84.856H95.852ZM95.852 90.232C95.852 90.9596 96.1549 91.5891 96.6569 92.0911L98.0711 90.6769C97.8905 90.4962 97.852 90.3578 97.852 90.232H95.852ZM96.7393 92.1649C97.2928 92.6076 97.9331 92.896 98.644 92.896V90.896C98.5016 90.896 98.2886 90.843 97.9887 90.6031L96.7393 92.1649ZM98.644 92.896H113.748V90.896H98.644V92.896ZM113.748 92.896C115.114 92.896 116.222 93.3522 117.137 94.2671L118.551 92.8529C117.247 91.5491 115.625 90.896 113.748 90.896V92.896ZM117.164 94.2928C118.144 95.2031 118.636 96.3407 118.636 97.784H120.636C120.636 95.8139 119.933 94.1355 118.524 92.8272L117.164 94.2928ZM118.636 97.784V101.112H120.636V97.784H118.636ZM118.636 101.112C118.636 102.456 118.153 103.613 117.137 104.629L118.551 106.043C119.925 104.67 120.636 103.011 120.636 101.112H118.636ZM117.137 104.629C116.222 105.544 115.114 106 113.748 106V108C115.625 108 117.247 107.347 118.551 106.043L117.137 104.629ZM113.748 106H95.956V108H113.748V106ZM95.956 106C92.2904 106 89.1694 104.736 86.5401 102.186L85.1479 103.622C88.1506 106.534 91.771 108 95.956 108V106ZM86.5511 102.197C83.9241 99.5699 82.62 96.4116 82.62 92.664H80.62C80.62 96.9378 82.1319 100.606 85.1369 103.611L86.5511 102.197ZM82.62 92.664V55.032H80.62V92.664H82.62ZM82.62 55.032C82.62 52.556 83.2167 50.3465 84.3975 48.3785L82.6825 47.3495C81.3033 49.6482 80.62 52.2174 80.62 55.032H82.62ZM84.3823 48.4031C85.6659 46.3973 87.304 44.8006 89.3025 43.6015L88.2735 41.8865C86.0053 43.2474 84.1447 45.064 82.6977 47.3249L84.3823 48.4031ZM89.3271 43.5863C91.2921 42.3286 93.4928 41.696 95.956 41.696V39.696C93.1285 39.696 90.5506 40.4287 88.2489 41.9017L89.3271 43.5863ZM95.956 41.696H113.748V39.696H95.956V41.696ZM113.748 41.696C116.211 41.696 118.412 42.3286 120.377 43.5863L121.455 41.9017C119.153 40.4287 116.575 39.696 113.748 39.696V41.696ZM120.402 43.6015C122.394 44.797 123.983 46.3859 125.179 48.3785L126.893 47.3495C125.529 45.0754 123.705 43.251 121.43 41.8865L120.402 43.6015ZM125.179 48.3785C126.359 50.3465 126.956 52.556 126.956 55.032H128.956C128.956 52.2174 128.273 49.6482 126.893 47.3495L125.179 48.3785ZM126.956 55.032V68.984H128.956V55.032H126.956ZM113.852 66.424V57.72H111.852V66.424H113.852ZM113.852 57.72C113.852 56.8815 113.482 56.1756 112.837 55.6591L111.587 57.2209C111.795 57.3871 111.852 57.5345 111.852 57.72H113.852ZM112.919 55.7329C112.417 55.2309 111.788 54.928 111.06 54.928V56.928C111.186 56.928 111.324 56.9665 111.505 57.1471L112.919 55.7329ZM111.06 54.928H98.644V56.928H111.06V54.928ZM98.644 54.928C97.9331 54.928 97.2928 55.2164 96.7393 55.6591L97.9887 57.2209C98.2886 56.981 98.5016 56.928 98.644 56.928V54.928ZM96.6569 55.7329C96.1158 56.274 95.852 56.9606 95.852 57.72H97.852C97.852 57.4554 97.9296 57.2886 98.0711 57.1471L96.6569 55.7329ZM95.852 57.72V66.424H97.852V57.72H95.852ZM95.852 66.424C95.852 67.1241 96.2066 67.7048 96.6569 68.1551L98.0711 66.7409C97.9573 66.627 97.9009 66.5417 97.8744 66.4888C97.8617 66.4633 97.8564 66.4463 97.8541 66.4375C97.852 66.429 97.852 66.4251 97.852 66.424H95.852ZM96.7393 68.2289C97.2928 68.6716 97.9331 68.96 98.644 68.96V66.96C98.5016 66.96 98.2886 66.907 97.9887 66.6671L96.7393 68.2289ZM98.644 68.96H111.06V66.96H98.644V68.96ZM111.06 68.96C111.788 68.96 112.417 68.6571 112.919 68.1551L111.505 66.7409C111.324 66.9215 111.186 66.96 111.06 66.96V68.96ZM112.837 68.2289C113.358 67.8115 113.852 67.2136 113.852 66.424H111.852C111.852 66.3759 111.869 66.3654 111.844 66.406C111.814 66.4537 111.742 66.5434 111.587 66.6671L112.837 68.2289Z" fill="black" mask="url(#path-1-outside-1_14_2)"/>
<defs>
<linearGradient id="paint0_linear_14_2" x1="-33.9394" y1="89.5135" x2="169.102" y2="82.5544" gradientUnits="userSpaceOnUse">
<stop offset="0.342362" stop-color="#7B04C4"/>
<stop offset="0.944315" stop-color="#1F0AA0"/>
</linearGradient>
</defs>
</svg>
