<svg viewBox="0 0 114 87" fill="none" xmlns="http://www.w3.org/2000/svg">
    <path
        d="M56.282 9.17599L38.49 42.2C38.0633 43.224 38.0633 44.2053 38.49 45.144L56.282 78.424C57.306 80.3867 57.2633 82.3067 56.154 84.184C54.9593 86.0613 53.2527 87 51.034 87H47.194C44.7193 87 43.0127 85.976 42.074 83.928L29.914 61.4C29.8287 61.0587 29.5727 60.888 29.146 60.888C28.8047 60.888 28.5487 61.0587 28.378 61.4L16.218 83.928C15.8767 84.8667 15.194 85.6347 14.17 86.232C13.2313 86.744 12.2073 87 11.098 87H7.13C4.99667 87 3.33267 86.0613 2.138 84.184C1.02867 82.3067 0.986 80.3867 2.01 78.424L19.802 45.144C20.2287 44.2053 20.2287 43.224 19.802 42.2L2.01 9.17599C0.986 7.04266 1.02867 5.08 2.138 3.28799C3.33267 1.41066 4.99667 0.471992 7.13 0.471992H11.098C13.402 0.471992 15.1087 1.49599 16.218 3.544L28.378 26.2C28.5487 26.5413 28.8047 26.712 29.146 26.712C29.4873 26.712 29.7433 26.5413 29.914 26.2L42.074 3.544C43.1833 1.49599 44.89 0.471992 47.194 0.471992H51.162C53.2953 0.471992 54.9593 1.41066 56.154 3.28799C57.2633 5.08 57.306 7.04266 56.282 9.17599ZM113.456 48.984C113.456 51.544 112.816 53.9333 111.536 56.152C110.256 58.2853 108.549 60.0347 106.416 61.4C104.283 62.68 101.893 63.32 99.248 63.32H84.144C83.7173 63.32 83.2907 63.4907 82.864 63.832C82.5227 64.088 82.352 64.4293 82.352 64.856V70.232C82.352 70.6587 82.5227 71.0427 82.864 71.384C83.2907 71.7253 83.7173 71.896 84.144 71.896H99.248C100.869 71.896 102.235 72.4507 103.344 73.56C104.539 74.6693 105.136 76.0773 105.136 77.784V81.112C105.136 82.7333 104.539 84.1413 103.344 85.336C102.235 86.4453 100.869 87 99.248 87H81.456C77.5307 87 74.16 85.6347 71.344 82.904C68.528 80.088 67.12 76.6747 67.12 72.664V35.032C67.12 32.3867 67.76 29.9973 69.04 27.864C70.4053 25.7307 72.1547 24.024 74.288 22.744C76.4213 21.3787 78.8107 20.696 81.456 20.696H99.248C101.893 20.696 104.283 21.3787 106.416 22.744C108.549 24.024 110.256 25.7307 111.536 27.864C112.816 29.9973 113.456 32.3867 113.456 35.032V48.984ZM98.352 46.424V37.72C98.352 37.208 98.1387 36.7813 97.712 36.44C97.3707 36.0987 96.9867 35.928 96.56 35.928H84.144C83.7173 35.928 83.2907 36.0987 82.864 36.44C82.5227 36.7813 82.352 37.208 82.352 37.72V46.424C82.352 46.7653 82.5227 47.1067 82.864 47.448C83.2907 47.7893 83.7173 47.96 84.144 47.96H96.56C96.9867 47.96 97.3707 47.7893 97.712 47.448C98.1387 47.1067 98.352 46.7653 98.352 46.424Z"
        fill="url(#paint0_linear_9_2)" fill-opacity="0.8" />
    <path
        d="M56.282 9.17599L57.1624 9.6503L57.1734 9.62976L57.1835 9.60873L56.282 9.17599ZM38.49 42.2L37.6096 41.7257L37.5861 41.7695L37.5669 41.8154L38.49 42.2ZM38.49 45.144L37.5796 45.5578L37.5929 45.5871L37.6081 45.6155L38.49 45.144ZM56.282 78.424L57.1686 77.9614L57.1639 77.9525L56.282 78.424ZM56.154 84.184L56.9977 84.7209L57.0065 84.7069L57.0149 84.6927L56.154 84.184ZM42.074 83.928L42.9831 83.5113L42.9695 83.4817L42.954 83.453L42.074 83.928ZM29.914 61.4L28.9439 61.6425L28.9743 61.7644L29.034 61.875L29.914 61.4ZM28.378 61.4L29.258 61.875L29.2654 61.8612L29.2724 61.8472L28.378 61.4ZM16.218 83.928L15.338 83.453L15.3032 83.5174L15.2782 83.5863L16.218 83.928ZM14.17 86.232L14.6489 87.1099L14.6615 87.103L14.6739 87.0958L14.17 86.232ZM2.138 84.184L1.27707 84.6927L1.28547 84.7069L1.29434 84.7209L2.138 84.184ZM2.01 78.424L1.12807 77.9525L1.12342 77.9614L2.01 78.424ZM19.802 45.144L20.6839 45.6155L20.6991 45.5871L20.7124 45.5578L19.802 45.144ZM19.802 42.2L20.7251 41.8154L20.706 41.7695L20.6824 41.7257L19.802 42.2ZM2.01 9.17599L1.10848 9.60873L1.11857 9.62976L1.12964 9.6503L2.01 9.17599ZM2.138 3.28799L1.29427 2.75108L1.28774 2.76164L2.138 3.28799ZM16.218 3.544L17.0991 3.07108L17.0973 3.06772L16.218 3.544ZM28.378 26.2L29.2724 25.7528L29.266 25.7398L29.2591 25.7271L28.378 26.2ZM29.914 26.2L29.0329 25.7271L29.026 25.7398L29.0196 25.7528L29.914 26.2ZM42.074 3.544L41.1947 3.06771L41.1929 3.07109L42.074 3.544ZM56.154 3.28799L57.0043 2.7616L56.9977 2.75112L56.154 3.28799ZM55.4016 8.70169L37.6096 41.7257L39.3704 42.6743L57.1624 9.6503L55.4016 8.70169ZM37.5669 41.8154C37.0425 43.074 37.0286 44.3456 37.5796 45.5578L39.4004 44.7302C39.098 44.065 39.0842 43.374 39.4131 42.5846L37.5669 41.8154ZM37.6081 45.6155L55.4001 78.8955L57.1639 77.9525L39.3719 44.6725L37.6081 45.6155ZM55.3954 78.8866C56.2625 80.5485 56.2233 82.101 55.2931 83.6753L57.0149 84.6927C58.3033 82.5123 58.3495 80.2249 57.1686 77.9614L55.3954 78.8866ZM55.3103 83.6471C54.2986 85.237 52.9095 86 51.034 86V88C53.5958 88 55.6201 86.8856 56.9977 84.7209L55.3103 83.6471ZM51.034 86H47.194V88H51.034V86ZM47.194 86C46.0941 86 45.2367 85.773 44.5725 85.3745C43.9144 84.9796 43.3798 84.377 42.9831 83.5113L41.1649 84.3447C41.7068 85.527 42.495 86.4604 43.5435 87.0895C44.586 87.715 45.8192 88 47.194 88V86ZM42.954 83.453L30.794 60.925L29.034 61.875L41.194 84.403L42.954 83.453ZM30.8841 61.1575C30.7904 60.7826 30.5774 60.4271 30.2127 60.1839C29.8682 59.9543 29.483 59.888 29.146 59.888V61.888C29.2357 61.888 29.1918 61.907 29.1033 61.848C29.0574 61.8175 29.0165 61.7766 28.986 61.7307C28.9566 61.6867 28.9464 61.6527 28.9439 61.6425L30.8841 61.1575ZM29.146 59.888C28.8003 59.888 28.4533 59.9773 28.1433 60.1839C27.8396 60.3864 27.6282 60.6635 27.4836 60.9528L29.2724 61.8472C29.2984 61.7952 29.3004 61.8162 29.2527 61.848C29.2298 61.8633 29.2046 61.8747 29.1807 61.8815C29.1577 61.8881 29.1445 61.888 29.146 61.888V59.888ZM27.498 60.925L15.338 83.453L17.098 84.403L29.258 61.875L27.498 60.925ZM15.2782 83.5863C15.0311 84.2659 14.5277 84.8656 13.6661 85.3682L14.6739 87.0958C15.8603 86.4037 16.7223 85.4674 17.1578 84.2697L15.2782 83.5863ZM13.6911 85.3541C12.905 85.7829 12.0465 86 11.098 86V88C12.3681 88 13.5577 87.7051 14.6489 87.1099L13.6911 85.3541ZM11.098 86H7.13V88H11.098V86ZM7.13 86C5.35598 86 4.00232 85.251 2.98166 83.6471L1.29434 84.7209C2.66301 86.8717 4.63735 88 7.13 88V86ZM2.99893 83.6753C2.06867 82.101 2.0295 80.5485 2.89659 78.8866L1.12342 77.9614C-0.0574986 80.2249 -0.0113393 82.5123 1.27707 84.6927L2.99893 83.6753ZM2.89188 78.8955L20.6839 45.6155L18.9201 44.6725L1.12812 77.9525L2.89188 78.8955ZM20.7124 45.5578C21.2634 44.3456 21.2495 43.074 20.7251 41.8154L18.8789 42.5846C19.2078 43.374 19.194 44.065 18.8916 44.7302L20.7124 45.5578ZM20.6824 41.7257L2.89036 8.70169L1.12964 9.6503L18.9216 42.6743L20.6824 41.7257ZM2.91152 8.74326C2.01371 6.87282 2.08307 5.27659 2.98827 3.81435L1.28774 2.76164C-0.0257334 4.8834 -0.0417071 7.21251 1.10848 9.60873L2.91152 8.74326ZM2.98166 3.82487C4.00232 2.22098 5.35598 1.47199 7.13 1.47199V-0.528008C4.63735 -0.528008 2.66301 0.600343 1.29434 2.75112L2.98166 3.82487ZM7.13 1.47199H11.098V-0.528008H7.13V1.47199ZM11.098 1.47199C12.0978 1.47199 12.9167 1.69261 13.5915 2.09749C14.2669 2.50271 14.8546 3.12662 15.3387 4.02028L17.0973 3.06772C16.472 1.91337 15.6518 1.00128 14.6205 0.382502C13.5886 -0.236623 12.4022 -0.528008 11.098 -0.528008V1.47199ZM15.3369 4.01691L27.4969 26.6729L29.2591 25.7271L17.0991 3.07109L15.3369 4.01691ZM27.4836 26.6472C27.6282 26.9365 27.8396 27.2136 28.1433 27.416C28.4533 27.6227 28.8003 27.712 29.146 27.712V25.712C29.1445 25.712 29.1577 25.7119 29.1807 25.7185C29.2046 25.7253 29.2298 25.7367 29.2527 25.7519C29.3004 25.7838 29.2984 25.8048 29.2724 25.7528L27.4836 26.6472ZM29.146 27.712C29.4917 27.712 29.8387 27.6227 30.1487 27.416C30.4524 27.2136 30.6638 26.9365 30.8084 26.6472L29.0196 25.7528C28.9936 25.8048 28.9916 25.7838 29.0393 25.7519C29.0622 25.7367 29.0875 25.7253 29.1113 25.7185C29.1343 25.7119 29.1475 25.712 29.146 25.712V27.712ZM30.7951 26.6729L42.9551 4.01691L41.1929 3.07109L29.0329 25.7271L30.7951 26.6729ZM42.9533 4.02028C43.4374 3.12662 44.0251 2.50271 44.7005 2.09749C45.3753 1.69261 46.1942 1.47199 47.194 1.47199V-0.528008C45.8898 -0.528008 44.7034 -0.236623 43.6715 0.382501C42.6402 1.00128 41.82 1.91337 41.1947 3.06772L42.9533 4.02028ZM47.194 1.47199H51.162V-0.528008H47.194V1.47199ZM51.162 1.47199C52.936 1.47199 54.2897 2.22098 55.3103 3.82487L56.9977 2.75112C55.629 0.600343 53.6547 -0.528008 51.162 -0.528008V1.47199ZM55.3037 3.81435C56.2089 5.27659 56.2783 6.87282 55.3805 8.74326L57.1835 9.60873C58.3337 7.21251 58.3177 4.8834 57.0043 2.76164L55.3037 3.81435ZM111.536 56.152L112.393 56.6665L112.398 56.6591L112.402 56.6517L111.536 56.152ZM106.416 61.4L106.93 62.2575L106.943 62.2501L106.955 62.2423L106.416 61.4ZM82.864 63.832L83.464 64.632L83.4765 64.6226L83.4887 64.6129L82.864 63.832ZM82.864 71.384L82.1569 72.0911L82.1961 72.1303L82.2393 72.1649L82.864 71.384ZM103.344 73.56L102.637 74.2671L102.65 74.2802L102.664 74.2928L103.344 73.56ZM103.344 85.336L104.051 86.0431L104.051 86.0431L103.344 85.336ZM71.344 82.904L70.6369 83.6111L70.6423 83.6165L70.6479 83.6219L71.344 82.904ZM69.04 27.864L68.1977 27.3249L68.1899 27.3371L68.1825 27.3495L69.04 27.864ZM74.288 22.744L74.8025 23.6015L74.8149 23.5941L74.8271 23.5863L74.288 22.744ZM106.416 22.744L105.877 23.5863L105.889 23.5941L105.902 23.6015L106.416 22.744ZM111.536 27.864L112.393 27.3495L112.393 27.3495L111.536 27.864ZM97.712 36.44L97.0049 37.1471L97.0441 37.1863L97.0873 37.2209L97.712 36.44ZM82.864 36.44L82.2393 35.6591L82.1961 35.6937L82.1569 35.7329L82.864 36.44ZM82.864 47.448L82.1569 48.1551L82.1961 48.1943L82.2393 48.2289L82.864 47.448ZM97.712 47.448L97.0873 46.6671L97.0441 46.7017L97.0049 46.7409L97.712 47.448ZM112.456 48.984C112.456 51.3685 111.862 53.5855 110.67 55.6523L112.402 56.6517C113.77 54.2812 114.456 51.7195 114.456 48.984H112.456ZM110.679 55.6375C109.479 57.636 107.883 59.2741 105.877 60.5577L106.955 62.2423C109.216 60.7953 111.033 58.9347 112.393 56.6665L110.679 55.6375ZM105.902 60.5425C103.934 61.7233 101.724 62.32 99.248 62.32V64.32C102.063 64.32 104.632 63.6367 106.93 62.2575L105.902 60.5425ZM99.248 62.32H84.144V64.32H99.248V62.32ZM84.144 62.32C83.4331 62.32 82.7928 62.6084 82.2393 63.0511L83.4887 64.6129C83.7886 64.373 84.0016 64.32 84.144 64.32V62.32ZM82.264 63.032C81.6709 63.4769 81.352 64.1146 81.352 64.856H83.352C83.352 64.7441 83.3745 64.6991 83.464 64.632L82.264 63.032ZM81.352 64.856V70.232H83.352V64.856H81.352ZM81.352 70.232C81.352 70.9596 81.6549 71.5891 82.1569 72.0911L83.5711 70.6769C83.3905 70.4962 83.352 70.3578 83.352 70.232H81.352ZM82.2393 72.1649C82.7928 72.6076 83.4331 72.896 84.144 72.896V70.896C84.0016 70.896 83.7886 70.843 83.4887 70.6031L82.2393 72.1649ZM84.144 72.896H99.248V70.896H84.144V72.896ZM99.248 72.896C100.614 72.896 101.722 73.3522 102.637 74.2671L104.051 72.8529C102.747 71.5491 101.125 70.896 99.248 70.896V72.896ZM102.664 74.2928C103.644 75.2031 104.136 76.3407 104.136 77.784H106.136C106.136 75.8139 105.433 74.1355 104.024 72.8272L102.664 74.2928ZM104.136 77.784V81.112H106.136V77.784H104.136ZM104.136 81.112C104.136 82.4559 103.653 83.613 102.637 84.6289L104.051 86.0431C105.425 84.6697 106.136 83.0107 106.136 81.112H104.136ZM102.637 84.6289C101.722 85.5438 100.614 86 99.248 86V88C101.125 88 102.747 87.3469 104.051 86.0431L102.637 84.6289ZM99.248 86H81.456V88H99.248V86ZM81.456 86C77.7904 86 74.6694 84.7357 72.0401 82.1861L70.6479 83.6219C73.6506 86.5336 77.271 88 81.456 88V86ZM72.0511 82.1969C69.4241 79.5699 68.12 76.4116 68.12 72.664H66.12C66.12 76.9378 67.6319 80.6061 70.6369 83.6111L72.0511 82.1969ZM68.12 72.664V35.032H66.12V72.664H68.12ZM68.12 35.032C68.12 32.556 68.7167 30.3465 69.8975 28.3785L68.1825 27.3495C66.8033 29.6482 66.12 32.2174 66.12 35.032H68.12ZM69.8823 28.4031C71.1659 26.3973 72.804 24.8006 74.8025 23.6015L73.7735 21.8865C71.5053 23.2474 69.6447 25.064 68.1977 27.3249L69.8823 28.4031ZM74.8271 23.5863C76.7921 22.3286 78.9928 21.696 81.456 21.696V19.696C78.6285 19.696 76.0506 20.4287 73.7489 21.9017L74.8271 23.5863ZM81.456 21.696H99.248V19.696H81.456V21.696ZM99.248 21.696C101.711 21.696 103.912 22.3286 105.877 23.5863L106.955 21.9017C104.653 20.4287 102.075 19.696 99.248 19.696V21.696ZM105.902 23.6015C107.894 24.797 109.483 26.3859 110.679 28.3785L112.393 27.3495C111.029 25.0754 109.205 23.251 106.93 21.8865L105.902 23.6015ZM110.679 28.3785C111.859 30.3465 112.456 32.556 112.456 35.032H114.456C114.456 32.2174 113.773 29.6482 112.393 27.3495L110.679 28.3785ZM112.456 35.032V48.984H114.456V35.032H112.456ZM99.352 46.424V37.72H97.352V46.424H99.352ZM99.352 37.72C99.352 36.8815 98.9822 36.1756 98.3367 35.6591L97.0873 37.2209C97.2951 37.3871 97.352 37.5345 97.352 37.72H99.352ZM98.4191 35.7329C97.9171 35.2309 97.2876 34.928 96.56 34.928V36.928C96.6858 36.928 96.8242 36.9665 97.0049 37.1471L98.4191 35.7329ZM96.56 34.928H84.144V36.928H96.56V34.928ZM84.144 34.928C83.4331 34.928 82.7928 35.2164 82.2393 35.6591L83.4887 37.2209C83.7886 36.981 84.0016 36.928 84.144 36.928V34.928ZM82.1569 35.7329C81.6158 36.274 81.352 36.9606 81.352 37.72H83.352C83.352 37.4554 83.4296 37.2886 83.5711 37.1471L82.1569 35.7329ZM81.352 37.72V46.424H83.352V37.72H81.352ZM81.352 46.424C81.352 47.1241 81.7066 47.7048 82.1569 48.1551L83.5711 46.7409C83.4573 46.627 83.4009 46.5417 83.3744 46.4888C83.3617 46.4633 83.3564 46.4463 83.3541 46.4375C83.352 46.429 83.352 46.4251 83.352 46.424H81.352ZM82.2393 48.2289C82.7928 48.6716 83.4331 48.96 84.144 48.96V46.96C84.0016 46.96 83.7886 46.907 83.4887 46.6671L82.2393 48.2289ZM84.144 48.96H96.56V46.96H84.144V48.96ZM96.56 48.96C97.2876 48.96 97.9171 48.6571 98.4191 48.1551L97.0049 46.7409C96.8242 46.9215 96.6858 46.96 96.56 46.96V48.96ZM98.3367 48.2289C98.8584 47.8115 99.352 47.2136 99.352 46.424H97.352C97.352 46.3759 97.3694 46.3654 97.344 46.406C97.3142 46.4537 97.2419 46.5434 97.0873 46.6671L98.3367 48.2289Z"
        fill="black" />
    <defs>
        <linearGradient id="paint0_linear_9_2" x1="-32.9899" y1="47.1622" x2="140.543" y2="42.9577"
            gradientUnits="userSpaceOnUse">
            <stop offset="0.342362" stop-color="#7B04C4" />
            <stop offset="0.944315" stop-color="#1F0AA0" />
        </linearGradient>
    </defs>
</svg>